<?xml version="1.0" encoding="UTF-8"?>
<svg version="1.1" xmlns="http://www.w3.org/2000/svg" width="460" height="425">
<path d="M0 0 C151.8 0 303.6 0 460 0 C460 140.25 460 280.5 460 425 C308.2 425 156.4 425 0 425 C0 284.75 0 144.5 0 0 Z " fill="#FEFEFE" transform="translate(0,0)"/>
<path d="M0 0 C-1.39879664 3.13859345 -3.08164985 5.32492489 -5.4375 7.8125 C-11.79639659 14.92494566 -13.35425491 22.59000745 -13.203125 31.97265625 C-12.49897837 42.46714925 -9.03328516 50.16806341 -2 58 C6.15846919 64.96763673 13.10728728 67.56444198 23.7421875 68.4453125 C27 69 27 69 28.93359375 70.10546875 C30.61667629 73.09556044 30.28068776 75.80167789 30.1875 79.1875 C30.14689453 81.09595703 30.14689453 81.09595703 30.10546875 83.04296875 C30.07066406 84.01878906 30.03585937 84.99460937 30 86 C37.549131 79.87685549 37.549131 79.87685549 44.9375 73.5625 C49.99957221 69.32688856 53.5100428 68.68729949 60.046875 68.5859375 C60.81807678 68.56657135 61.58927856 68.5472052 62.3838501 68.5272522 C64.83912205 68.46762923 67.29444133 68.42114086 69.75 68.375 C71.41798882 68.33680425 73.08595826 68.29775159 74.75390625 68.2578125 C78.83577943 68.16194209 82.91774493 68.07784765 87 68 C92.69583825 77.08797303 97.83277234 86.09787333 102 96 C102.26554687 96.62261719 102.53109375 97.24523437 102.8046875 97.88671875 C118.53746196 135.66095446 117.02706778 181.38574532 102 219 C100.75208742 221.85759472 99.46434246 224.69134553 98.14599609 227.51708984 C97.21889235 229.52574878 96.36354934 231.56742901 95.53125 233.6171875 C93.53545389 238.02626769 91.08656495 242.04062387 88.5 246.125 C87.97245117 246.95813721 87.44490234 247.79127441 86.90136719 248.6496582 C80.09174064 259.19848118 72.04911249 268.30616444 63 277 C61.7934375 278.2375 61.7934375 278.2375 60.5625 279.5 C47.18387511 292.55231696 47.18387511 292.55231696 40 296 C36.20628836 294.73542945 35.72045516 293.37136458 33.5625 290.0625 C23.57099707 276.02334442 9.76043143 269.13280882 -6.53222656 264.91088867 C-11.24963037 263.59593912 -13.89027426 261.7653209 -17 258 C-18.33249935 254.00250195 -18.26257566 250.31198778 -18.3125 246.125 C-18.34150391 245.32191406 -18.37050781 244.51882813 -18.40039062 243.69140625 C-18.44380513 239.63715962 -18.34110839 237.54462684 -16.140625 234.03125 C-12.22822769 230.3187562 -8.06703453 228.97733935 -2.9375 227.6875 C6.98348067 225.09236609 16.26883042 220.78753646 24 214 C24.65355469 213.45085937 25.30710937 212.90171875 25.98046875 212.3359375 C33.98975748 205.05476593 38.80558199 195.35673779 42.625 185.375 C44.55132113 180.47163713 46.31435607 178.59205834 51 176 C57.64745026 167.87533857 57.93561945 158.09544942 57 148 C55.44160295 142.12021006 52.70922284 137.90520918 48 134 C47.17242187 133.5771875 46.34484375 133.154375 45.4921875 132.71875 C42.37668768 130.57012943 41.80974993 128.91115914 40.5625 125.375 C38.36443406 119.65864613 35.66842844 114.88811053 32 110 C31.40058594 109.19304687 30.80117188 108.38609375 30.18359375 107.5546875 C20.23271585 95.9126944 5.19916105 88.31215779 -10 87 C-11.62731114 86.93944889 -13.25498279 86.8882296 -14.8828125 86.84375 C-16.20514893 86.80181519 -16.20514893 86.80181519 -17.55419922 86.7590332 C-19.31316147 86.71235906 -21.07294097 86.68897815 -22.83251953 86.69213867 C-28.2694944 86.57139975 -31.17120118 85.64201825 -35.37841797 82.20483398 C-39.20054669 79.3649958 -44.46319898 78.96853055 -49 78 C-49 71.07 -49 64.14 -49 57 C-47.35 56.34 -45.7 55.68 -44 55 C-41.90296311 50.70606732 -41.48412045 46.7288959 -42 42 C-44.12127244 38.59081216 -46.12675063 36.21730695 -50 35 C-54.17045536 34.54504123 -56.24984637 34.51656766 -59.8125 36.8125 C-62.69425977 39.69425977 -63.93174611 41.26285798 -64.3125 45.375 C-63.98364216 49.189751 -63.12706378 50.89803198 -61 54 C-61 54.66 -61 55.32 -61 56 C-59.68 56.33 -58.36 56.66 -57 57 C-57 63.93 -57 70.86 -57 78 C-58.85625 78.4125 -60.7125 78.825 -62.625 79.25 C-67.99610453 80.58167881 -72.03414111 82.03414111 -76 86 C-77.5310759 86.10930881 -79.06671885 86.15586124 -80.6015625 86.17578125 C-96.45976899 86.5211336 -110.69936811 87.40390653 -124 97 C-124.83015625 97.57492188 -125.6603125 98.14984375 -126.515625 98.7421875 C-137.59334597 106.93154564 -144.67797926 118.03393778 -149 131 C-150.92578125 132.359375 -150.92578125 132.359375 -153.3125 133.75 C-158.33651854 136.96089897 -160.65589443 139.9860957 -162.5703125 145.703125 C-164.27093765 154.79373946 -164.32882408 164.97394662 -159.50390625 173.04296875 C-156.83673023 176.51376145 -153.94724773 179.02637614 -150 181 C-149.18464507 182.93203669 -148.44793652 184.8975132 -147.75 186.875 C-141.78752129 202.82157063 -133.38450761 214.88912587 -117.73046875 222.61328125 C-114.8419685 223.82068148 -111.94385391 224.93611085 -109 226 C-108.14148438 226.35449219 -107.28296875 226.70898438 -106.3984375 227.07421875 C-104.26533169 227.8975837 -102.29641915 228.4273025 -100.0625 228.875 C-94.77695233 230.14393111 -91.04149977 232.43775035 -88 237 C-87.57743073 239.94408704 -87.6756906 242.90375489 -87.6875 245.875 C-87.67138672 246.67808594 -87.65527344 247.48117187 -87.63867188 248.30859375 C-87.63479787 253.01163833 -87.83098187 256.27723765 -91 260 C-95.45658836 263.60554889 -99.6974162 264.95698285 -105.125 266.3125 C-122.35671477 271.04328431 -134.15915447 281.29370849 -144 296 C-159.08380146 293.89190245 -177.14864428 270.36510174 -185.7331543 259.13525391 C-187.91224233 256.14736203 -189.97122592 253.09127275 -192 250 C-192.44166504 249.34402832 -192.88333008 248.68805664 -193.33837891 248.01220703 C-199.1635795 239.3315567 -203.58806411 230.92787122 -207 221 C-207.87004256 218.81052353 -208.74507946 216.62302536 -209.625 214.4375 C-211.61701961 209.27948057 -213.10235246 204.14361092 -214.32421875 198.75390625 C-214.96215628 195.95564241 -214.96215628 195.95564241 -216.01171875 193.1484375 C-219.786556 181.1226714 -219.20482121 167.59864127 -219.25 155.125 C-219.25918457 153.83086182 -219.26836914 152.53672363 -219.27783203 151.20336914 C-219.24225053 140.0670724 -217.77397547 129.38099578 -215.1875 118.5625 C-215.01790771 117.85005127 -214.84831543 117.13760254 -214.67358398 116.40356445 C-212.94943703 109.41279073 -210.6121862 102.70783616 -208 96 C-207.64421875 95.030625 -207.2884375 94.06125 -206.921875 93.0625 C-192.41462633 55.46624992 -159.28798048 22.64735553 -122.88574219 6.03515625 C-118.99325889 4.40057691 -115.03731812 3.00332286 -111.02880859 1.68261719 C-108.90455761 0.96788725 -106.80737416 0.19609002 -104.70703125 -0.5859375 C-71.89666297 -12.57469009 -32.7702285 -11.43567974 0 0 Z " fill="#041140" transform="translate(293,86)"/>
<path d="M0 0 C3.79259576 2.04216695 7.00344184 4.11780358 9 8 C9.57482146 13.1733931 8.92199673 16.66738416 6 21 C4.35 21.66 2.7 22.32 1 23 C1 29.93 1 36.86 1 44 C3.31 44.33 5.62 44.66 8 45 C11.49796161 45.92803063 13.73117565 46.78802672 16.5859375 49.0390625 C21.0542477 51.605529 24.5075984 51.5448322 29.5625 51.5625 C48.54756225 52.1079291 65.31132773 57.25316056 79 71 C85.87157623 78.82190061 90.71144368 87.13433104 94 97 C95.7173225 97.92471212 97.4346816 98.84935643 99.15234375 99.7734375 C104.1618056 103.09895763 106.44507908 108.37201189 108 114 C108.90950943 123.96916825 108.57789174 133.96709929 102.0625 142 C100.38883538 143.85665195 99.28591207 144.88541692 96.953125 145.8203125 C94.0456851 147.5764062 93.73569004 149.69612546 92.6875 152.875 C87.42475034 167.28415494 78.52883248 181.08755677 64.265625 187.98828125 C63.51796875 188.32214844 62.7703125 188.65601563 62 189 C61.14921875 189.42667969 60.2984375 189.85335937 59.421875 190.29296875 C54.53931635 192.67147232 49.93617532 194.34001324 44.625 195.5 C39.53812967 196.64800965 37.1527224 197.86884651 34 202 C33.67 202.33 33.34 202.66 33 203 C32.84581431 205.92952805 32.76826047 208.81919425 32.75 211.75 C32.729375 212.56210937 32.70875 213.37421875 32.6875 214.2109375 C32.65628719 219.00210456 32.90070169 222.11889671 36 226 C37.32 227.32 38.64 228.64 40 230 C-4.55 230.495 -4.55 230.495 -50 231 C-48.00443701 229.66962468 -45.98295147 228.37731723 -43.9375 227.125 C-41.00892412 225.00645575 -40.27181696 224.22151717 -39 221 C-38.55118557 218.03067234 -38.58418704 215.06254064 -38.5625 212.0625 C-38.52962891 211.26392578 -38.49675781 210.46535156 -38.46289062 209.64257812 C-38.42280367 205.24394607 -38.55707574 203.54899673 -41.4140625 200.0078125 C-44.85970951 197.33249141 -47.16754407 196.19676231 -51.4375 195.1875 C-61.17929746 192.84292561 -70.01781981 189.05994088 -78 183 C-79.010625 182.2575 -80.02125 181.515 -81.0625 180.75 C-87.63117688 174.97972583 -92.24678439 168.10254532 -95.9375 160.25 C-96.23197021 159.62432129 -96.52644043 158.99864258 -96.82983398 158.35400391 C-98.14465625 155.41526491 -99.03419653 152.79072687 -99.5546875 149.60546875 C-99.77511719 148.31576172 -99.77511719 148.31576172 -100 147 C-101.64991582 146.29289322 -103.3207762 145.63437344 -105 145 C-110.34854252 140.12062787 -114.00068172 134.19812467 -114.3984375 126.87890625 C-114.41111459 125.4401388 -114.40283468 124.00105403 -114.375 122.5625 C-114.36557373 121.81186279 -114.35614746 121.06122559 -114.34643555 120.2878418 C-114.11618085 111.8674919 -111.95439593 106.09616726 -106 100 C-101.7 97 -101.7 97 -99 97 C-98.88527344 96.11570312 -98.77054688 95.23140625 -98.65234375 94.3203125 C-96.03449465 80.99593086 -84.59194454 69.0327907 -73.71484375 61.6796875 C-60.8261151 53.70536617 -49.03876826 51.59697235 -34.0090332 51.55371094 C-28.30252482 51.45609017 -25.19371408 51.23357828 -21 47 C-18.97265625 45.953125 -18.97265625 45.953125 -17.0625 45.25 C-16.43472656 45.00765625 -15.80695313 44.7653125 -15.16015625 44.515625 C-13 44 -13 44 -7 44 C-7 37.07 -7 30.14 -7 23 C-8.32 22.67 -9.64 22.34 -11 22 C-13.63508002 18.34016664 -14.83347967 15.93251386 -15.625 11.5 C-14.78196355 6.77899587 -12.48315442 4.19439551 -9 1 C-5.89046621 -0.5547669 -3.43733239 -0.28644437 0 0 Z " fill="#FCFDFD" transform="translate(243,120)"/>
<path d="M0 0 C0.80236084 -0.0065712 1.60472168 -0.0131424 2.43139648 -0.01991272 C5.07845162 -0.0395704 7.72545015 -0.05129308 10.37255859 -0.0612793 C11.28097881 -0.06535482 12.18939903 -0.06943035 13.12534714 -0.07362938 C17.93610148 -0.09446062 22.74682756 -0.10877362 27.55761719 -0.11816406 C32.50357938 -0.12920687 37.44908903 -0.16359066 42.39489174 -0.20333576 C46.21785261 -0.22959803 50.04070733 -0.23786452 53.86375046 -0.24144554 C55.68564272 -0.24628869 57.50753098 -0.25783712 59.32933426 -0.27648354 C74.30073348 -0.42016343 86.36123884 1.43040004 97.83349609 11.9543457 C106.15656172 20.72585237 108.70795996 29.75086213 108.62841797 41.61035156 C108.1701187 51.60371744 104.39226146 59.51838084 97.83349609 67.11450195 C89.5309145 74.56407859 78.82467717 78.32195222 67.88964844 78.33813477 C67.08582733 78.34309967 66.28200623 78.34806458 65.4538269 78.35317993 C62.79652037 78.36777391 60.13927361 78.37460041 57.48193359 78.38012695 C55.62830606 78.38588249 53.77467854 78.39164017 51.92105103 78.3973999 C48.03232548 78.40790329 44.14362055 78.41374969 40.25488281 78.41723633 C35.29206141 78.42270712 30.32951628 78.44670762 25.36678123 78.47520828 C21.53528064 78.49391376 17.70384539 78.49904455 13.87230301 78.5005722 C12.04401776 78.50358351 10.21573323 78.51156013 8.38749313 78.52475739 C-6.37154984 78.62365575 -17.96441387 77.64019634 -29.26806641 67.1730957 C-37.34061798 58.72261569 -41.55157125 48.74002068 -41.37744141 37.0559082 C-40.26629923 25.35716846 -35.23989878 16.7975585 -26.79150391 8.92700195 C-18.58998259 2.28062238 -10.37749913 0.03719534 0 0 Z " fill="#051241" transform="translate(206.10400390625,204.822998046875)"/>
<path d="M0 0 C1.92316292 -0.02398109 1.92316292 -0.02398109 3.88517761 -0.04844666 C5.26890662 -0.05482626 6.65264049 -0.06021808 8.03637695 -0.06469727 C9.47736189 -0.07368182 10.91834598 -0.08280394 12.35932922 -0.09205627 C15.37434136 -0.10849431 18.38924317 -0.11623643 21.40429688 -0.11914062 C25.2360757 -0.12450854 29.06679239 -0.16214325 32.89827251 -0.20788479 C35.87461466 -0.23788148 38.85070845 -0.24486908 41.82718849 -0.24586678 C43.23798277 -0.25002715 44.64878075 -0.26228971 46.05942345 -0.28338432 C59.43597855 -0.46744851 69.44019762 2.518261 79.1418457 11.90795898 C87.58869746 21.13636997 89.96252196 29.82214628 89.6496582 42.29077148 C89.02422083 53.35058906 83.38545325 61.72346459 75.4621582 69.05639648 C67.76959064 75.48644342 60.67824644 77.40438586 50.6887207 77.44702148 C48.80926758 77.47602539 48.80926758 77.47602539 46.8918457 77.50561523 C44.28002099 77.53936645 41.66794967 77.55769069 39.0559082 77.56030273 C31.4309319 77.70904457 26.17588235 78.22293019 20.3371582 83.30639648 C19.77754395 83.78189941 19.21792969 84.25740234 18.64135742 84.74731445 C17.03993721 86.16661423 15.49590691 87.62697729 13.9621582 89.11889648 C8.59486039 94.30639648 8.59486039 94.30639648 6.3371582 94.30639648 C6.28817383 93.31897461 6.23918945 92.33155273 6.1887207 91.31420898 C6.11395508 90.03288086 6.03918945 88.75155273 5.9621582 87.43139648 C5.85774414 85.51713867 5.85774414 85.51713867 5.7512207 83.56420898 C5.66474714 80.22577949 5.66474714 80.22577949 3.3371582 78.30639648 C1.05229884 78.0171368 -1.24185044 77.79966472 -3.5378418 77.61889648 C-14.63526829 76.40392767 -22.99081532 71.21053061 -30.0456543 62.56030273 C-36.58474122 53.44664778 -38.65296485 43.43349364 -37.6628418 32.30639648 C-36.37110807 24.96848053 -33.41450727 19.9352925 -28.6628418 14.30639648 C-27.9203418 13.27514648 -27.1778418 12.24389648 -26.4128418 11.18139648 C-19.2623981 3.70593261 -10.30167944 0.09779914 0 0 Z " fill="#34EDFA" transform="translate(316.662841796875,77.693603515625)"/>
<path d="M0 0 C0 0.66 0 1.32 0 2 C-1.52367187 2.38478516 -1.52367187 2.38478516 -3.078125 2.77734375 C-16.5564615 6.4280005 -26.92495872 13.1332198 -36 24 C-37.19273835 26.12792901 -37.19273835 26.12792901 -38 28 C-38.66 28 -39.32 28 -40 28 C-40.12632812 28.58652344 -40.25265625 29.17304688 -40.3828125 29.77734375 C-40.98673059 31.95221334 -41.78050786 33.59835326 -42.875 35.5625 C-47.50191941 44.56396139 -49.1408486 54.67647199 -49.203125 64.70703125 C-49.21167511 65.79427742 -49.21167511 65.79427742 -49.22039795 66.90348816 C-49.2297989 68.4305172 -49.23636229 69.95756607 -49.24023438 71.48461914 C-49.24992848 73.7954525 -49.2809926 76.10539081 -49.3125 78.41601562 C-49.3677192 86.06889046 -49.1959478 92.90886857 -46 100 C-45.62359375 101.04027344 -45.2471875 102.08054687 -44.859375 103.15234375 C-40.41627744 114.30702179 -33.85586319 124.71604894 -23.5625 131.3125 C-22.716875 131.869375 -21.87125 132.42625 -21 133 C-21 133.66 -21 134.32 -21 135 C-16.69677317 136.46939453 -12.37702633 137.77443263 -8 139 C-8 139.66 -8 140.32 -8 141 C2.28554627 142.95749038 12.24125091 143.33874796 22.67578125 143.4140625 C24.33872896 143.43281922 26.00166761 143.4523958 27.66459656 143.4727478 C31.99627279 143.52360009 36.32797972 143.56347355 40.65979004 143.60089111 C45.09813739 143.64122859 49.53636226 143.69218361 53.97460938 143.7421875 C62.64965522 143.83838971 71.32476282 143.92296864 80 144 C79.57489639 144.45373993 79.14979279 144.90747986 78.71180725 145.37496948 C78.16117111 145.98454498 77.61053497 146.59412048 77.04321289 147.22216797 C76.49435928 147.8202829 75.94550568 148.41839783 75.38002014 149.03463745 C72.94759726 152.4987846 73.24410861 156.03324532 73.4375 160.125 C73.43943359 160.91003906 73.44136719 161.69507813 73.44335938 162.50390625 C73.60827211 169.74785068 75.81971952 172.81971952 81 178 C36.45 178.495 36.45 178.495 -9 179 C-7.00443701 177.66962468 -4.98295147 176.37731723 -2.9375 175.125 C-0.00892412 173.00645575 0.72818304 172.22151717 2 169 C2.44881443 166.03067234 2.41581296 163.06254064 2.4375 160.0625 C2.47037109 159.26392578 2.50324219 158.46535156 2.53710938 157.64257812 C2.57719633 153.24394607 2.44292426 151.54899673 -0.4140625 148.0078125 C-3.85970951 145.33249141 -6.16754407 144.19676231 -10.4375 143.1875 C-20.17929746 140.84292561 -29.01781981 137.05994088 -37 131 C-38.010625 130.2575 -39.02125 129.515 -40.0625 128.75 C-46.63117688 122.97972583 -51.24678439 116.10254532 -54.9375 108.25 C-55.23197021 107.62432129 -55.52644043 106.99864258 -55.82983398 106.35400391 C-57.14465625 103.41526491 -58.03419653 100.79072687 -58.5546875 97.60546875 C-58.77511719 96.31576172 -58.77511719 96.31576172 -59 95 C-60.64991582 94.29289322 -62.3207762 93.63437344 -64 93 C-69.34854252 88.12062787 -73.00068172 82.19812467 -73.3984375 74.87890625 C-73.41111459 73.4401388 -73.40283468 72.00105403 -73.375 70.5625 C-73.36557373 69.81186279 -73.35614746 69.06122559 -73.34643555 68.2878418 C-73.11618085 59.8674919 -70.95439593 54.09616726 -65 48 C-60.7 45 -60.7 45 -58 45 C-57.82791016 43.67355469 -57.82791016 43.67355469 -57.65234375 42.3203125 C-55.03449465 28.99593086 -43.59194454 17.0327907 -32.71484375 9.6796875 C-22.55897245 3.39619878 -12.11479926 -0.69893073 0 0 Z " fill="#DDE7EF" transform="translate(202,172)"/>
<path d="M0 0 C3.79259576 2.04216695 7.00344184 4.11780358 9 8 C9.57482146 13.1733931 8.92199673 16.66738416 6 21 C4.35 21.66 2.7 22.32 1 23 C1 29.93 1 36.86 1 44 C-1.64 44 -4.28 44 -7 44 C-7 37.07 -7 30.14 -7 23 C-8.32 22.67 -9.64 22.34 -11 22 C-13.63508002 18.34016664 -14.83347967 15.93251386 -15.625 11.5 C-14.78196355 6.77899587 -12.48315442 4.19439551 -9 1 C-5.89046621 -0.5547669 -3.43733239 -0.28644437 0 0 Z " fill="#F4F5F8" transform="translate(243,120)"/>
<path d="M0 0 C1.65 0.33 3.3 0.66 5 1 C5 5.29 5 9.58 5 14 C9.29 14 13.58 14 18 14 C17.979375 11.875625 17.95875 9.75125 17.9375 7.5625 C17.91626217 5.37500389 17.92741054 3.18639453 18 1 C19 0 19 0 21.5 -0.125 C24 0 24 0 25 1 C25.10082764 3.43660446 25.13972603 5.84424701 25.1328125 8.28125 C25.13424759 9.37427429 25.13424759 9.37427429 25.13571167 10.48937988 C25.13639335 12.0327971 25.13453988 13.57621717 25.13037109 15.11962891 C25.12502262 17.489974 25.13031642 19.86012959 25.13671875 22.23046875 C25.13605797 23.72656292 25.1347768 25.22265697 25.1328125 26.71875 C25.13483673 27.43228638 25.13686096 28.14582275 25.13894653 28.88098145 C25.11495191 33.88504809 25.11495191 33.88504809 24 35 C21.5 35.125 21.5 35.125 19 35 C18 34 18 34 17.90234375 31.05859375 C17.93489583 27.70572917 17.96744792 24.35286458 18 21 C13.71 21 9.42 21 5 21 C5 25.29 5 29.58 5 34 C2.525 34.495 2.525 34.495 0 35 C-1.70492881 33.29507119 -1.1280442 31.15465739 -1.13894653 28.88098145 C-1.1369223 28.16744507 -1.13489807 27.45390869 -1.1328125 26.71875 C-1.13376923 25.99006714 -1.13472595 25.26138428 -1.13571167 24.51062012 C-1.13639335 22.9672029 -1.13453988 21.42378283 -1.13037109 19.88037109 C-1.12502262 17.510026 -1.13031642 15.13987041 -1.13671875 12.76953125 C-1.13605797 11.27343708 -1.1347768 9.77734303 -1.1328125 8.28125 C-1.13483673 7.56771362 -1.13686096 6.85417725 -1.13894653 6.11901855 C-1.11495191 1.11495191 -1.11495191 1.11495191 0 0 Z " fill="#051C49" transform="translate(316,99)"/>
<path d="M0 0 C2.27734375 0.4765625 2.27734375 0.4765625 4.83984375 1.9140625 C6.95301425 5.68101861 7.61290733 9.16643475 7.27734375 13.4765625 C4.48216303 18.87415286 4.48216303 18.87415286 1.27734375 20.4765625 C-1.83246276 21.02388845 -4.62200794 21.11019582 -7.72265625 20.4765625 C-11.44905991 17.86127718 -13.37665163 14.86058097 -14.47265625 10.4765625 C-12.51750302 2.65594957 -7.99210378 -0.64898286 0 0 Z " fill="#33EEFA" transform="translate(277.72265625,233.5234375)"/>
<path d="M0 0 C4.36879433 2.34042553 4.36879433 2.34042553 6 5 C6.85406516 8.52013345 6.85406516 11.47986655 6 15 C4.26673512 17.82597535 3.09484645 18.34204655 0 20 C-3.09425163 20.72380155 -4.71119054 20.52203325 -8 20 C-10.69105198 17.82425584 -12.45532928 16.08934144 -14 13 C-14.39447548 8.81855989 -14.45035186 6.69053952 -12.125 3.125 C-8.51313286 -0.48686714 -4.93961993 -0.76838532 0 0 Z " fill="#36ECF9" transform="translate(209,234)"/>
<path d="M0 0 C1.65 0.33 3.3 0.66 5 1 C5 11.89 5 22.78 5 34 C2.525 34.495 2.525 34.495 0 35 C-1.70492881 33.29507119 -1.1280442 31.15465739 -1.13894653 28.88098145 C-1.1369223 28.16744507 -1.13489807 27.45390869 -1.1328125 26.71875 C-1.13376923 25.99006714 -1.13472595 25.26138428 -1.13571167 24.51062012 C-1.13639335 22.9672029 -1.13453988 21.42378283 -1.13037109 19.88037109 C-1.12502262 17.510026 -1.13031642 15.13987041 -1.13671875 12.76953125 C-1.13605797 11.27343708 -1.1347768 9.77734303 -1.1328125 8.28125 C-1.13483673 7.56771362 -1.13686096 6.85417725 -1.13894653 6.11901855 C-1.11495191 1.11495191 -1.11495191 1.11495191 0 0 Z " fill="#011A46" transform="translate(350,99)"/>
<path d="M0 0 C1.94737061 -0.01429802 1.94737061 -0.01429802 3.93408203 -0.02888489 C5.33365913 -0.02862345 6.73323625 -0.02768637 8.1328125 -0.02612305 C9.58577597 -0.03001594 11.03873832 -0.03435182 12.49169922 -0.03910828 C15.52770691 -0.04654391 18.56359825 -0.04629809 21.59960938 -0.04101562 C25.47645282 -0.03521684 29.35281915 -0.05217436 33.22958374 -0.0753603 C36.22716014 -0.09013956 39.22462262 -0.0909638 42.222229 -0.08785057 C43.65107164 -0.08836143 45.07992105 -0.09355463 46.50872803 -0.10366249 C60.23171372 -0.18886039 60.23171372 -0.18886039 66.2578125 3.2746582 C63.2578125 4.2746582 63.2578125 4.2746582 60.2578125 3.2746582 C58.00441584 3.15653325 55.74776754 3.09769175 53.49145508 3.06933594 C52.80826706 3.05943634 52.12507904 3.04953674 51.42118835 3.03933716 C49.16494197 3.00777142 46.90867453 2.9829843 44.65234375 2.95825195 C43.08720861 2.93767817 41.52207898 2.91668158 39.95695496 2.89527893 C35.83884134 2.84010211 31.72067794 2.7906735 27.60247803 2.74243164 C23.39965386 2.69218456 19.19690192 2.63651523 14.99414062 2.58129883 C6.748759 2.47377094 -1.49668308 2.37231407 -9.7421875 2.2746582 C-9.7421875 2.9346582 -9.7421875 3.5946582 -9.7421875 4.2746582 C-11.53171935 5.11256609 -13.32388445 5.94485216 -15.1171875 6.7746582 C-16.61378906 7.47075195 -16.61378906 7.47075195 -18.140625 8.1809082 C-20.7421875 9.2746582 -20.7421875 9.2746582 -22.7421875 9.2746582 C-22.8246875 9.8521582 -22.9071875 10.4296582 -22.9921875 11.0246582 C-23.96016537 13.92859181 -25.42913034 15.31206425 -27.7421875 17.2746582 C-28.4021875 17.2746582 -29.0621875 17.2746582 -29.7421875 17.2746582 C-29.7421875 17.9346582 -29.7421875 18.5946582 -29.7421875 19.2746582 C-30.4021875 19.2746582 -31.0621875 19.2746582 -31.7421875 19.2746582 C-27.8885186 11.10345284 -21.85474967 6.12246669 -13.7421875 2.2746582 C-9.03381434 0.73412374 -4.94686658 0.0200666 0 0 Z " fill="#4CE9F6" transform="translate(316.7421875,77.725341796875)"/>
<path d="M0 0 C2.64 0 5.28 0 8 0 C8 6.93 8 13.86 8 21 C5.36 21 2.72 21 0 21 C0 14.07 0 7.14 0 0 Z " fill="#D8E1EB" transform="translate(236,143)"/>
<path d="M0 0 C1.65 0.33 3.3 0.66 5 1 C5 7.93 5 14.86 5 22 C3.35 22.33 1.7 22.66 0 23 C-1.62200515 21.37799485 -1.1299075 19.57976969 -1.1328125 17.34375 C-1.13410156 16.40402344 -1.13539063 15.46429688 -1.13671875 14.49609375 C-1.13285156 13.50738281 -1.12898438 12.51867187 -1.125 11.5 C-1.12886719 10.51128906 -1.13273437 9.52257812 -1.13671875 8.50390625 C-1.13542969 7.56417969 -1.13414062 6.62445313 -1.1328125 5.65625 C-1.13168457 4.78806641 -1.13055664 3.91988281 -1.12939453 3.02539062 C-1 1 -1 1 0 0 Z " fill="#011B47" transform="translate(365,99)"/>
<path d="M0 0 C2.5 0.125 2.5 0.125 3.5 1.125 C3.58843793 3.57330426 3.61528752 5.99320599 3.59765625 8.44140625 C3.5962413 9.17246078 3.59482635 9.90351532 3.59336853 10.65672302 C3.58775408 13.00035632 3.57519922 15.34389539 3.5625 17.6875 C3.55748686 19.27278508 3.55292363 20.85807166 3.54882812 22.44335938 C3.53777997 26.3372761 3.52050572 30.23112205 3.5 34.125 C3.17 34.125 2.84 34.125 2.5 34.125 C1.84 23.565 1.18 13.005 0.5 2.125 C-0.49 2.455 -1.48 2.785 -2.5 3.125 C-2.5 6.755 -2.5 10.385 -2.5 14.125 C-2.83 14.125 -3.16 14.125 -3.5 14.125 C-3.52685938 11.97923363 -3.54633088 9.83337355 -3.5625 7.6875 C-3.57410156 6.49253906 -3.58570313 5.29757813 -3.59765625 4.06640625 C-3.46840705 0.17342035 -3.46840705 0.17342035 0 0 Z " fill="#0F5173" transform="translate(337.5,98.875)"/>
<path d="M0 0 C-0.99 0 -1.98 0 -3 0 C-3 0.66 -3 1.32 -3 2 C-4.78953185 2.83790789 -6.58169695 3.67019396 -8.375 4.5 C-9.87160156 5.19609375 -9.87160156 5.19609375 -11.3984375 5.90625 C-14 7 -14 7 -16 7 C-16.0825 7.5775 -16.165 8.155 -16.25 8.75 C-17.21797787 11.6539336 -18.68694284 13.03740604 -21 15 C-21.66 15 -22.32 15 -23 15 C-23 15.66 -23 16.32 -23 17 C-23.66 17 -24.32 17 -25 17 C-21.08660846 8.70216053 -15.06764231 4.13796456 -7 0 C-3.86650268 -1.04449911 -3.01031744 -0.93423645 0 0 Z " fill="#63E8F3" transform="translate(310,80)"/>
<path d="M0 0 C2.5625 0.1875 2.5625 0.1875 4.5625 2.1875 C4.02678571 5.72321429 4.02678571 5.72321429 2.5625 7.1875 C0.0625 7.3125 0.0625 7.3125 -2.4375 7.1875 C-3.4375 6.1875 -3.4375 6.1875 -3.5625 3.6875 C-3.39599509 0.35740177 -3.31519894 0.2550153 0 0 Z " fill="#062854" transform="translate(366.4375,126.8125)"/>
<path d="M0 0 C2.86526202 3.2080896 3.37645477 5.26871581 3.36328125 9.53515625 C3.36263672 10.59154297 3.36199219 11.64792969 3.36132812 12.73632812 C3.34521484 13.83396484 3.32910156 14.93160156 3.3125 16.0625 C3.31572266 17.16400391 3.31894531 18.26550781 3.32226562 19.40039062 C3.26717255 27.59924117 3.26717255 27.59924117 1 31 C0.34 31 -0.32 31 -1 31 C-0.505 29.515 -0.505 29.515 0 28 C1.0943674 23.66133775 1.19160188 19.38803684 1.1875 14.9375 C1.18814453 14.26525391 1.18878906 13.59300781 1.18945312 12.90039062 C1.14217792 8.50379665 0.70334391 4.32697172 0 0 Z " fill="#D0FCFE" transform="translate(404,101)"/>
<path d="M0 0 C0.66 0.33 1.32 0.66 2 1 C3.41154413 5.72171453 3.46232564 9.10723325 1.1875 13.5 C-1 16 -1 16 -3 17 C-4.54023996 17.06950541 -6.08334988 17.08452357 -7.625 17.0625 C-8.85089844 17.04896484 -8.85089844 17.04896484 -10.1015625 17.03515625 C-10.72804688 17.02355469 -11.35453125 17.01195312 -12 17 C-12 16.67 -12 16.34 -12 16 C-8.7 15.67 -5.4 15.34 -2 15 C0.59227518 10.13948404 0.18689553 5.34728867 0 0 Z " fill="#47CFE3" transform="translate(282,237)"/>
<path d="M0 0 C0.33 0.99 0.66 1.98 1 3 C0.19175781 3.46921875 -0.61648437 3.9384375 -1.44921875 4.421875 C-5.10473516 8.11657765 -4.77723804 11.23496636 -4.8125 16.25 C-4.83763672 17.09046875 -4.86277344 17.9309375 -4.88867188 18.796875 C-4.94739935 20.86408228 -4.97659774 22.93209111 -5 25 C-4.01 25.33 -3.02 25.66 -2 26 C-3.32 26 -4.64 26 -6 26 C-6 19.07 -6 12.14 -6 5 C-4.35 4.34 -2.7 3.68 -1 3 C-0.67 2.01 -0.34 1.02 0 0 Z " fill="#32365B" transform="translate(250,138)"/>
<path d="M0 0 C0 0.33 0 0.66 0 1 C-1.11375 1.103125 -2.2275 1.20625 -3.375 1.3125 C-4.57125 1.539375 -5.7675 1.76625 -7 2 C-7.99 3.485 -7.99 3.485 -9 5 C-9.66 5 -10.32 5 -11 5 C-11 8.63 -11 12.26 -11 16 C-14 13 -14 13 -14.5625 10.25 C-13.10442409 1.82556142 -8.02063427 -0.96800758 0 0 Z " fill="#47C9DD" transform="translate(278,234)"/>
<path d="M0 0 C1.4540625 0.0309375 1.4540625 0.0309375 2.9375 0.0625 C2.40125 0.454375 1.865 0.84625 1.3125 1.25 C-2.67688973 4.29453427 -6.60554922 7.4134964 -10.0625 11.0625 C-9.64735103 6.2190954 -7.60041301 4.24662171 -4.0625 1.0625 C-3.0625 0.0625 -3.0625 0.0625 0 0 Z " fill="#192147" transform="translate(285.0625,315.9375)"/>
<path d="M0 0 C0.33 0.66 0.66 1.32 1 2 C-0.09740625 3.62957312 -1.20318192 5.25351228 -2.3125 6.875 C-2.92738281 7.77992188 -3.54226563 8.68484375 -4.17578125 9.6171875 C-6 12 -6 12 -9 14 C-9 10.26161126 -8.11005385 9.67777231 -5.625 7 C-3.51259272 4.705039 -1.73869403 2.60804104 0 0 Z " fill="#353B5C" transform="translate(329,286)"/>
<path d="M0 0 C0 0.66 0 1.32 0 2 C-2.97 2.66 -5.94 3.32 -9 4 C-9 3.34 -9 2.68 -9 2 C-9.99 1.67 -10.98 1.34 -12 1 C-8.0186217 -0.3271261 -4.14954773 -0.06915913 0 0 Z " fill="#D1D8E4" transform="translate(202,172)"/>
<path d="M0 0 C0.66 0.33 1.32 0.66 2 1 C0.59290434 2.48827426 -0.82606201 3.96533185 -2.25 5.4375 C-3.43335938 6.67306641 -3.43335938 6.67306641 -4.640625 7.93359375 C-6.90734717 9.91885207 -8.0671937 10.6300359 -11 11 C-7.33333333 7.33333333 -3.66666667 3.66666667 0 0 Z " fill="#D2D6E3" transform="translate(353,365)"/>
<path d="M0 0 C3.9375 0.3125 3.9375 0.3125 5.9375 2.3125 C3.29291621 3.63479189 1.25988699 3.40927194 -1.6875 3.375 C-2.69039062 3.36597656 -3.69328125 3.35695312 -4.7265625 3.34765625 C-5.49742187 3.33605469 -6.26828125 3.32445312 -7.0625 3.3125 C-4.79975954 0.62416572 -3.5148412 -0.08540736 0 0 Z " fill="#45D6E9" transform="translate(205.0625,233.6875)"/>
<path d="M0 0 C-1.28519565 2.86697492 -2.57129254 4.97607712 -5 7 C-5.66 7 -6.32 7 -7 7 C-7 7.66 -7 8.32 -7 9 C-7.66 9 -8.32 9 -9 9 C-7.45665977 5.21180126 -4.44676575 0 0 0 Z " fill="#46DDF0" transform="translate(294,88)"/>
<path d="M0 0 C1.17571451 3.67410785 1.07366746 7.16929183 1 11 C0.01 11.495 0.01 11.495 -1 12 C-2.50934217 8.98131566 -2.17510672 6.32702771 -2 3 C-1.34 2.01 -0.68 1.02 0 0 Z " fill="#42CDE1" transform="translate(197,237)"/>
<path d="M0 0 C0.66 0 1.32 0 2 0 C2 3.96 2 7.92 2 12 C2.99 12.33 3.98 12.66 5 13 C3.02 13.99 3.02 13.99 1 15 C0.67 10.05 0.34 5.1 0 0 Z " fill="#55DBF0" transform="translate(322,157)"/>
<path d="M0 0 C3.64775386 3.88309282 4.58525633 6.71201818 5 12 C3.5 10.8125 3.5 10.8125 2 9 C1.8125 6.3125 1.8125 6.3125 2 4 C1.34 4 0.68 4 0 4 C0 2.68 0 1.36 0 0 Z " fill="#6CE9F5" transform="translate(400,96)"/>
<path d="M0 0 C0.33 0.99 0.66 1.98 1 3 C-1.31 4.65 -3.62 6.3 -6 8 C-6.66 7.67 -7.32 7.34 -8 7 C-5.36 4.69 -2.72 2.38 0 0 Z " fill="#BCC6D7" transform="translate(166,184)"/>
<path d="M0 0 C-0.33 0.66 -0.66 1.32 -1 2 C-2.32 2 -3.64 2 -5 2 C-5 2.66 -5 3.32 -5 4 C-5.66 4 -6.32 4 -7 4 C-7.33 3.01 -7.66 2.02 -8 1 C-5.29120665 -0.35439668 -2.99066732 -0.06501451 0 0 Z " fill="#21294C" transform="translate(199,206)"/>
<path d="M0 0 C1.98 0 3.96 0 6 0 C5.67 0.99 5.34 1.98 5 3 C3.35 3.33 1.7 3.66 0 4 C0 2.68 0 1.36 0 0 Z " fill="#41EAF6" transform="translate(364,123)"/>
</svg>
